<?xml version="1.0" standalone="no"?>
<!DOCTYPE svg PUBLIC "-//W3C//DTD SVG 20010904//EN"
 "http://www.w3.org/TR/2001/REC-SVG-20010904/DTD/svg10.dtd">
<svg version="1.0" xmlns="http://www.w3.org/2000/svg"
 width="1024.000000pt" height="1024.000000pt" viewBox="0 0 1024.000000 1024.000000"
 preserveAspectRatio="xMidYMid meet">

<g transform="translate(0.000000,1024.000000) scale(0.100000,-0.100000)"
fill="#000000" stroke="none">
<path d="M4860 7493 c-537 -53 -1086 -368 -1416 -813 -208 -281 -305 -509
-363 -852 -53 -315 -25 -652 80 -963 165 -486 554 -925 1029 -1160 309 -154
504 -198 870 -199 252 -1 336 10 542 70 137 40 254 90 411 175 455 247 804
664 961 1148 79 243 120 587 97 810 -6 63 -14 118 -17 123 -3 5 -24 -8 -46
-28 -39 -35 -134 -84 -163 -84 -10 0 -15 -11 -15 -35 l0 -35 -115 0 c-90 0
-115 -3 -115 -13 0 -13 -46 -85 -105 -166 -14 -19 -25 -38 -25 -42 0 -5 79 -9
175 -9 l175 0 0 -32 c0 -138 -79 -421 -177 -640 l-26 -58 -96 0 c-53 0 -187
-3 -299 -7 l-203 -6 17 36 c10 20 14 40 11 44 -4 3 -49 -10 -100 -31 -50 -20
-119 -41 -151 -46 -33 -5 -83 -21 -112 -35 -53 -26 -204 -149 -212 -172 -3
-10 24 -13 112 -13 l116 0 -32 -57 c-53 -96 -167 -275 -211 -333 -80 -104
-259 -280 -285 -280 -4 0 -6 98 -4 217 l3 218 -38 20 c-57 30 -100 101 -108
179 -9 77 -3 106 40 199 18 40 45 108 61 152 28 79 28 83 32 363 l4 282 27 0
c25 0 29 6 50 73 13 39 34 88 48 107 l23 35 -75 3 -75 3 0 359 0 360 308 0
308 0 34 -95 c19 -53 39 -94 44 -92 6 2 23 25 37 51 14 26 44 66 66 89 67 69
213 276 202 283 -6 4 -62 3 -123 0 l-112 -7 -40 88 c-48 108 -210 354 -294
446 -34 37 -60 70 -58 73 7 6 231 -77 298 -111 125 -63 234 -140 378 -265 46
-39 85 -70 86 -68 1 1 10 17 21 33 10 17 45 63 78 104 l60 73 -24 20 c-237
190 -457 319 -694 406 -145 53 -209 69 -373 92 -127 18 -385 25 -502 13z
m-270 -289 c0 -4 -36 -44 -79 -90 -96 -101 -194 -247 -276 -409 l-60 -120
-242 3 c-185 2 -243 5 -243 15 0 23 210 227 309 301 163 121 288 192 461 262
105 42 130 49 130 38z m637 -43 c84 -68 258 -253 310 -331 27 -41 70 -115 96
-163 l47 -88 -260 2 -260 1 0 309 c0 179 4 309 9 309 5 0 31 -17 58 -39z
m-292 -277 l0 -305 -245 7 c-135 4 -247 8 -249 10 -5 5 109 215 143 262 46 65
105 130 171 193 65 60 163 139 173 139 4 0 7 -138 7 -306z m-849 -546 c-44
-150 -87 -382 -106 -573 -6 -60 -13 -112 -16 -114 -3 -3 -151 -5 -329 -6 -322
0 -325 0 -325 21 0 11 14 91 30 177 35 178 83 326 143 440 l41 77 284 0 284 0
-6 -22z m854 -338 l0 -360 -370 1 -370 0 0 22 c0 12 7 72 15 132 8 61 19 148
25 195 10 84 34 188 72 308 l20 62 304 0 304 0 0 -360z m-1016 -586 l46 -7 0
-53 c0 -131 64 -518 105 -634 l14 -40 -293 0 -294 0 -37 88 c-65 155 -105 287
-130 437 -14 81 -25 160 -25 176 l0 29 263 3 c144 1 271 3 283 5 12 1 42 -1
68 -4z m1014 -366 l-3 -363 -311 -3 -312 -2 -26 112 c-47 202 -86 470 -86 588
l0 30 370 0 370 0 -2 -362z m-753 -635 c54 -143 213 -412 314 -528 33 -38 59
-71 57 -72 -6 -6 -113 35 -206 79 -221 104 -450 283 -628 492 -23 27 -42 54
-42 60 0 9 67 13 243 15 l244 2 18 -48z m587 40 l157 -6 3 -329 c2 -180 1
-328 -1 -328 -11 0 -169 141 -217 193 -72 80 -203 275 -260 388 l-44 89 102 0
c57 0 174 -3 260 -7z m1688 0 c0 -5 -36 -47 -79 -95 -234 -256 -473 -422 -750
-519 -85 -31 -112 -31 -74 -1 99 79 319 430 365 584 l11 38 264 0 c144 0 263
-3 263 -7z"/>
<path d="M6855 7203 c-40 -15 -60 -31 -109 -92 l-60 -74 52 -48 c29 -27 83
-65 119 -86 37 -20 110 -69 164 -109 l97 -72 45 76 c68 116 70 122 69 179 -1
73 -16 113 -60 156 -78 76 -215 106 -317 70z"/>
<path d="M6600 6937 c0 -8 -27 -47 -61 -87 -33 -39 -57 -76 -52 -80 35 -34
445 -312 470 -318 7 -2 21 14 33 35 12 21 37 63 56 93 19 30 34 57 33 60 -1 8
-195 132 -272 174 -37 21 -97 60 -133 87 -71 54 -74 55 -74 36z"/>
<path d="M7242 6733 c-21 -8 -44 -64 -52 -127 -7 -54 -19 -79 -112 -226 -58
-91 -113 -183 -124 -205 -10 -22 -39 -59 -64 -82 -25 -24 -78 -73 -118 -110
-75 -69 -93 -102 -72 -128 14 -17 57 -19 95 -5 76 29 216 163 283 271 19 30
85 135 147 233 117 184 143 246 131 309 -12 59 -63 91 -114 70z"/>
<path d="M6384 6637 c-15 -23 -62 -87 -103 -142 -42 -55 -105 -140 -141 -189
-35 -49 -87 -117 -115 -150 -28 -34 -80 -99 -115 -146 -87 -115 -264 -291
-385 -382 -112 -84 -129 -101 -144 -141 -6 -16 -15 -108 -21 -205 -12 -227
-33 -354 -92 -550 -16 -57 -28 -105 -25 -108 16 -17 143 147 336 434 23 34 56
78 73 97 30 35 30 36 14 69 -26 55 -21 120 12 157 24 27 37 33 85 37 77 6 111
-10 137 -62 31 -66 27 -119 -14 -163 -30 -33 -38 -37 -82 -36 -27 1 -58 3 -69
5 -15 2 -36 -22 -93 -102 -40 -58 -102 -143 -136 -190 -99 -133 -166 -235
-166 -253 0 -10 -5 -17 -11 -17 -5 0 -7 -4 -4 -10 4 -6 10 -6 18 0 36 30 154
111 237 164 145 91 384 182 495 189 30 2 57 6 61 9 3 3 14 37 24 75 34 122 87
267 137 368 58 118 128 243 149 266 8 8 33 52 57 96 59 113 332 538 368 574
21 21 21 22 3 40 -11 10 -93 64 -184 121 -91 57 -190 122 -221 145 l-57 42
-28 -42z m-484 -1181 c0 -2 -8 -10 -17 -17 -16 -13 -17 -12 -4 4 13 16 21 21
21 13z"/>
<path d="M5168 4500 c-24 -14 -41 -72 -29 -101 13 -34 52 -68 86 -75 34 -6 98
30 103 59 5 25 -22 62 -70 97 -43 32 -62 36 -90 20z"/>
</g>
</svg>
